<svg xmlns="http://www.w3.org/2000/svg"  viewBox="0 0 120 120" width="120px" height="120px" baseProfile="basic"><polygon points="24,110 24,22.8 70,22.8 96,46.852 96,110" opacity=".35"/><rect width="72" height="86" x="24" y="20" fill="#f80"/><rect width="58" height="73" x="31" y="29" opacity=".35"/><rect width="58" height="73" x="31" y="26" fill="#fff"/><path d="M73.1,35H46.9c-3.258,0-5.9-2.642-5.9-5.9V23h38v6.1C79,32.358,76.358,35,73.1,35z" opacity=".35"/><path fill="#0075ff" d="M73.1,32H46.9c-3.258,0-5.9-2.642-5.9-5.9V20h38v6.1C79,29.358,76.358,32,73.1,32z"/><path fill="#0075ff" d="M60,6c-5.523,0-10,4.477-10,10c0,5.523,4.477,10,10,10s10-4.477,10-10C70,10.477,65.523,6,60,6z M60,20c-2.209,0-4-1.791-4-4c0-2.209,1.791-4,4-4s4,1.791,4,4C64,18.209,62.209,20,60,20z"/><polygon points="56.147,83.042 40.05,68.421 44.084,63.979 55.952,74.759 74.748,56.002 78.986,60.248" opacity=".2"/><polygon fill="#44bf00" points="56.147,79.042 40.05,64.421 44.084,59.979 55.952,70.759 74.748,52.002 78.986,56.248"/></svg>