<svg xmlns="http://www.w3.org/2000/svg"  viewBox="0 0 50 50" width="50px" height="50px"><path fill="#399bdf" d="M43.699,25.923c-0.76,0.25-1.478,0.602-2.154,1.021c-0.193-0.823-0.913-1.354-1.821-1.148	c-0.703,0.16-1.4,0.591-2.006,1.008c0.017-0.23,0.034-0.46,0.039-0.691c0.014-0.695-0.647-1.08-1.266-0.964	c-2.239,0.418-3.583,2.346-4.695,4.159c-0.675,1.1,1.054,2.106,1.727,1.01c0.575-0.938,1.195-1.937,2.066-2.588	c-0.091,0.49-0.218,0.975-0.381,1.459c-0.318,0.939,1.012,1.705,1.671,0.973c0.493-0.548,1.029-1.059,1.633-1.483	c0.296-0.208,0.602-0.401,0.918-0.578c0.021-0.012,0.044-0.022,0.065-0.034c-0.001,0.003-0.001,0.007-0.002,0.01	c-0.091,0.328-0.218,0.645-0.353,0.956c-0.197,0.458-0.174,0.968,0.258,1.29c0.375,0.281,0.98,0.303,1.313-0.078	c0.528-0.604,1.115-1.139,1.795-1.568c0.308-0.194,0.628-0.369,0.958-0.523c-0.136,0.46-0.322,0.915-0.468,1.295	c-0.193,0.505,0.213,1.097,0.698,1.23c0.563,0.155,1.037-0.192,1.23-0.698c0.33-0.863,0.72-1.906,0.72-2.844	C45.644,26.008,44.652,25.61,43.699,25.923z"/><path fill="#99c93c" d="M8.427,22.253c0.805,0.751,1.846,1.017,2.835,1.432c-0.08-0.034-0.159-0.067-0.239-0.101 c0.266,0.114,0.523,0.242,0.764,0.402c0.436,0.291,1.126,0.099,1.368-0.359c0.266-0.503,0.107-1.058-0.359-1.368 c-0.704-0.469-1.539-0.684-2.312-1.01c0.08,0.034,0.159,0.067,0.239,0.101c-0.306-0.131-0.6-0.284-0.867-0.484 c0.067,0.052,0.135,0.104,0.202,0.156c-0.075-0.058-0.148-0.12-0.217-0.185c-0.383-0.357-1.04-0.408-1.414,0 C8.071,21.227,8.018,21.872,8.427,22.253L8.427,22.253z"/><path fill="#99c93c" d="M9.266,28.303c0.152-0.082,0.305-0.16,0.461-0.233c0.088-0.041,0.178-0.088,0.269-0.121 c-0.034,0.015-0.068,0.029-0.103,0.044c0.046-0.019,0.091-0.037,0.137-0.055c0.321-0.126,0.649-0.233,0.982-0.321 c0.167-0.044,0.334-0.083,0.503-0.118c0.161-0.033,0.345-0.091,0.509-0.089c-0.256-0.003-0.038,0.005,0.027-0.002 c0.098-0.011,0.196-0.02,0.294-0.028c0.172-0.014,0.344-0.021,0.516-0.026c0.523-0.013,1.025-0.451,1-1 c-0.024-0.531-0.44-1.014-1-1c-1.612,0.04-3.186,0.459-4.606,1.222c-0.462,0.248-0.644,0.926-0.359,1.368 C8.2,28.413,8.773,28.568,9.266,28.303L9.266,28.303z"/><path fill="#99c93c" d="M13.574,28.592c-0.493,0.768-0.863,1.632-1.081,2.518c-0.063,0.256-0.034,0.541,0.101,0.771 c0.121,0.207,0.359,0.405,0.598,0.46c0.256,0.058,0.543,0.046,0.771-0.101c0.216-0.139,0.397-0.342,0.46-0.598 c0.095-0.384,0.219-0.759,0.371-1.124c-0.034,0.08-0.067,0.159-0.101,0.239c0.17-0.402,0.374-0.788,0.61-1.155 c0.283-0.441,0.105-1.123-0.359-1.368C14.446,27.971,13.876,28.121,13.574,28.592L13.574,28.592z"/><path fill="#ff9600" d="M43.69,47.256c0.295-0.145,0.581-0.31,0.851-0.497c0.034-0.024,0.067-0.048,0.1-0.073 c0.004-0.003,0.005-0.004,0.009-0.008c0.12-0.101,0.235-0.206,0.346-0.317c0.167-2.914-0.687-5.856-2.373-8.254 c-1.008-1.434-2.284-2.679-3.783-3.593c-1.871-1.141-4.023-1.493-6.033-2.297c-1.055-0.422-2.108-1.031-2.82-1.937 c-0.254-0.323-0.433-0.673-0.568-1.037c-0.007-0.083-0.017-0.167-0.024-0.25c-0.039-0.484-0.075-0.969-0.107-1.453 c-0.001-0.019-0.002-0.037-0.004-0.056c0.807-0.836,1.471-1.767,2.005-2.77c0.721-1.075,1.285-2.273,1.726-3.494 c1.496-0.655,2.973-1.327,4.025-2.661c0.735-0.932,1.341-2.35,0.87-3.535c-0.573-1.439-2.456-0.688-3.497-0.332 c0.122-2.198-0.197-4.389-1.351-6.271c-0.864-1.408-2.156-2.581-3.691-3.209c-0.754-0.308-1.57-0.479-2.387-0.461 c-0.433,0.01-0.851,0.139-1.278,0.155c-0.457,0.018-0.785-0.229-1.11-0.526c-0.603-0.552-1.126-1.121-1.934-1.366 c-0.819-0.248-1.734-0.148-2.517,0.169c-1.7,0.688-2.868,2.36-3.714,3.916c-1.379,2.536-1.962,5.286-1.927,8.042 c-0.467-0.178-0.944-0.327-1.438-0.413c-0.668-0.117-1.327-0.166-1.874,0.307c-0.927,0.801-0.89,2.206-0.405,3.228 c0.554,1.166,1.663,1.866,2.847,2.277c0.604,0.209,1.23,0.364,1.861,0.503c0.632,1.956,1.544,3.831,2.668,5.55 c0.234,1.43,0.31,2.875,0.247,4.327c-1.12,1.39-3.006,2.044-4.511,2.909c-1.653,0.95-3.238,2.064-4.58,3.425 c-2.644,2.682-4.287,6.504-3.38,10.281c0.025,0.105,0.079,0.177,0.141,0.234c0.058,0.181,0.208,0.328,0.455,0.326 c9.737-0.047,19.474-0.221,29.206-0.524c2.62-0.082,5.24-0.174,7.859-0.274C43.635,47.281,43.669,47.266,43.69,47.256z"/><path fill="#fff" d="M27.576,39.767c0.036-0.077,0.075-0.151,0.111-0.228c0.69-2.052,1.539-4.049,2.551-5.973 c0.531-1.01-0.127-2.234-1.295-2.257c-3.048-0.062-6.096-0.042-9.143,0.059c-0.373,0.012-0.672,0.136-0.901,0.325 c-0.021,0.011-0.042,0.017-0.063,0.029c-0.673,0.394-0.984,1.372-0.538,2.052c1.207,1.844,2.308,3.755,3.288,5.729 c0.053,0.107,0.096,0.219,0.148,0.326c0.333,0.521,0.602,1.083,0.835,1.664c0.142,0.159,0.258,0.337,0.301,0.545 c0.062,0.301,0.141,0.597,0.229,0.89c0.113,0.322,0.227,0.642,0.346,0.955c0.106,0.278,0.205,0.558,0.306,0.837 c0.116,0.287,0.234,0.573,0.35,0.859c0.154,0.38,0.292,0.76,0.421,1.142c0.241,0.032,0.479-0.003,0.705-0.071 C26.032,44.361,26.544,41.992,27.576,39.767z"/><path fill="#231f20" d="M12.942,17.597c0.926,0.22,1.852,0.441,2.779,0.661c0.254,0.06,0.554-0.08,0.615-0.349 c0.058-0.257-0.077-0.55-0.349-0.615c-0.926-0.22-1.852-0.441-2.779-0.661c-0.254-0.06-0.554,0.08-0.615,0.349 C12.534,17.239,12.67,17.532,12.942,17.597L12.942,17.597z"/><path fill="#231f20" d="M33.919,18.138c0.638-0.289,1.275-0.578,1.913-0.867c0.107-0.049,0.2-0.19,0.23-0.299 c0.033-0.12,0.018-0.279-0.05-0.385c-0.159-0.247-0.428-0.295-0.684-0.179c-0.638,0.289-1.275,0.578-1.913,0.867 c-0.107,0.049-0.2,0.19-0.23,0.299c-0.033,0.12-0.018,0.279,0.05,0.385C33.394,18.205,33.663,18.254,33.919,18.138L33.919,18.138z"/><path fill="#231f20" d="M20.024,15.108c0.041,0.542,0.082,1.084,0.123,1.626c0.01,0.134,0.049,0.256,0.146,0.354 c0.087,0.087,0.229,0.152,0.354,0.146c0.254-0.011,0.521-0.221,0.5-0.5c-0.041-0.542-0.082-1.084-0.123-1.626 c-0.01-0.134-0.049-0.256-0.146-0.354c-0.087-0.087-0.229-0.152-0.354-0.146C20.27,14.619,20.002,14.829,20.024,15.108 L20.024,15.108z"/><path fill="#231f20" d="M26.176,14.915c0,0.608-0.04,1.214-0.119,1.817c-0.015,0.117,0.067,0.274,0.146,0.354 c0.087,0.087,0.229,0.152,0.354,0.146c0.129-0.006,0.263-0.048,0.354-0.146c0.096-0.105,0.128-0.214,0.146-0.354 c0.079-0.603,0.118-1.209,0.119-1.817c0-0.262-0.23-0.512-0.5-0.5C26.405,14.427,26.176,14.635,26.176,14.915L26.176,14.915z"/><path fill="#231f20" d="M22.363,18.901c-0.197,0.47-0.317,0.957-0.383,1.461c-0.06,0.461-0.074,0.983,0.286,1.336 c0.369,0.361,0.909,0.34,1.371,0.208c0.485-0.139,0.956-0.337,1.402-0.572c0.232-0.122,0.321-0.464,0.179-0.684 c-0.152-0.236-0.436-0.31-0.684-0.179c-0.092,0.049-0.185,0.096-0.28,0.141c-0.04,0.019-0.081,0.038-0.122,0.056 c-0.027,0.012-0.054,0.024-0.082,0.036c0.051-0.021,0.05-0.02-0.004,0.002c-0.18,0.073-0.362,0.139-0.547,0.197 c-0.087,0.027-0.175,0.054-0.265,0.074c-0.022,0.005-0.087,0.009-0.105,0.021c0.074-0.009,0.083-0.01,0.027-0.004 c-0.018,0.002-0.035,0.003-0.053,0.003c-0.012,0.001-0.12,0.006-0.122-0.002c0.071,0.011,0.087,0.014,0.049,0.006 c-0.016-0.003-0.033-0.007-0.049-0.011c-0.1-0.02,0.102,0.039-0.017-0.007c-0.031-0.019-0.02-0.009,0.033,0.03 c-0.017-0.015-0.034-0.031-0.049-0.048c0.042,0.058,0.048,0.064,0.019,0.019c-0.005-0.01-0.011-0.02-0.016-0.029 c0.027,0.069,0.031,0.077,0.013,0.026c-0.007-0.022-0.013-0.044-0.018-0.066c-0.029-0.095,0.001,0.103-0.002-0.005 c-0.001-0.035-0.004-0.071-0.004-0.106c0-0.088,0.008-0.177,0.017-0.265c0.005-0.044,0.01-0.089,0.015-0.133 c-0.015,0.119,0.012-0.067,0.015-0.087c0.068-0.396,0.183-0.782,0.338-1.152c0.101-0.242-0.109-0.56-0.349-0.615 C22.686,18.485,22.472,18.642,22.363,18.901L22.363,18.901z"/><path fill="#231f20" d="M33.004,12.924c-3.395-0.705-6.544-2.277-9.128-4.592c-0.204-0.183-0.503-0.196-0.707,0	c-2.195,2.108-4.608,3.959-7.212,5.535c-0.55,0.333-0.048,1.198,0.505,0.864c2.543-1.539,4.909-3.348,7.074-5.383	c2.639,2.257,5.796,3.834,9.202,4.541C33.366,14.019,33.635,13.055,33.004,12.924z"/><path fill="#231f20" d="M18.491,27.151c3.164,2.334,7.566,2.509,10.787,0.183c0.517-0.373,0.018-1.241-0.505-0.863 c-2.964,2.14-6.871,1.961-9.778-0.183C18.477,25.905,17.978,26.772,18.491,27.151L18.491,27.151z"/><path fill="#231f20" d="M30.636,20.639c-0.169-0.034-0.336-0.076-0.5-0.128c-0.072-0.023-0.143-0.047-0.214-0.073	c-0.04-0.015-0.081-0.03-0.121-0.046c-0.01-0.004-0.02-0.008-0.03-0.012c-0.305-0.138-0.595-0.3-0.868-0.494	c-0.1-0.071-0.271-0.082-0.385-0.05c-0.116,0.032-0.242,0.122-0.299,0.23c-0.136,0.258-0.049,0.521,0.179,0.684	c0.131,0.094,0.269,0.179,0.41,0.26c-1.227,1.805-3.308,2.97-5.49,3.06c-0.641,0.027-0.645,1.027,0,1	c2.583-0.107,5.001-1.482,6.418-3.642c0.208,0.071,0.419,0.133,0.634,0.176c0.256,0.052,0.552-0.073,0.615-0.349	C31.042,21.006,30.91,20.695,30.636,20.639z"/><path fill="#231f20" d="M29.8,32.321c-0.999,2.047-1.829,4.153-2.579,6.289c-0.677-0.578-1.356-1.155-2.034-1.732	c0.418-0.353,0.838-0.705,1.255-1.06c0.265-0.225,0.501-0.471,0.487-0.845c-0.014-0.387-0.312-0.764-0.497-1.087	c-0.454-0.793-0.907-1.587-1.361-2.38c-0.087-0.153-0.257-0.248-0.432-0.248c-0.146,0-0.293,0-0.439,0	c-0.175,0-0.345,0.095-0.432,0.248c-0.477,0.834-0.954,1.668-1.431,2.502c-0.194,0.339-0.486,0.718-0.414,1.132	c0.076,0.438,0.494,0.695,0.809,0.961c0.305,0.257,0.607,0.517,0.911,0.775c-0.698,0.589-1.396,1.179-2.095,1.768	c-0.01,0.009-0.013,0.019-0.022,0.028c-1.047-1.91-2.199-3.761-3.356-5.606c-0.341-0.544-1.207-0.043-0.864,0.505	c1.379,2.2,2.76,4.403,3.953,6.711c1.242,2.403,2.199,4.924,3.068,7.482c0.025,0.074,0.063,0.135,0.107,0.184	c0.198,0.311,0.78,0.348,0.922-0.116c1.549-5.086,2.966-10.21,5.305-15.006C30.945,32.249,30.082,31.742,29.8,32.321z M23.999,35.865c-0.317-0.267-0.635-0.533-0.95-0.802c-0.039-0.033-0.085-0.092-0.114-0.093c0.028-0.056,0.073-0.119,0.092-0.153	c0.104-0.183,0.209-0.366,0.314-0.549c0.36-0.629,0.719-1.258,1.079-1.887c0.313,0.547,0.626,1.095,0.939,1.643	c0.176,0.307,0.415,0.626,0.545,0.955c-0.007,0.001-0.011-0.002-0.021,0.005c-0.071,0.052-0.136,0.116-0.204,0.173	c-0.168,0.142-0.335,0.283-0.503,0.425c-0.253,0.213-0.505,0.427-0.758,0.64C24.278,36.104,24.139,35.984,23.999,35.865z M24.822,46.153c-0.749-2.103-1.574-4.177-2.591-6.169c-0.089-0.174-0.186-0.344-0.277-0.517c0.103-0.005,0.207-0.034,0.303-0.115	c0.719-0.607,1.438-1.214,2.157-1.821c0.744,0.633,1.489,1.265,2.232,1.898c0.08,0.068,0.166,0.098,0.251,0.112	C26.157,41.726,25.49,43.938,24.822,46.153z"/></svg>